<?xml version="1.0" encoding="UTF-8"?>
<svg xmlns="http://www.w3.org/2000/svg" viewBox="0 0 800 800" width="800" height="800">
  <g fill="none" stroke="#000000" stroke-width="10" stroke-linecap="round" stroke-linejoin="round">
    <!-- 큰 돛 (왼쪽) -->
    <path d="M 380 130 L 380 480 L 180 480 Z"/>
    <!-- 작은 돛 (오른쪽) -->
    <path d="M 400 200 L 400 480 L 580 480 Z"/>
    <!-- 마스트 -->
    <path d="M 380 100 L 380 540"/>
    <!-- 선체 -->
    <path d="M 100 540
             L 700 540
             L 620 660
             Q 600 690 560 690
             L 240 690
             Q 200 690 180 660 Z"/>
    <!-- 갑판 -->
    <path d="M 100 540 L 700 540"/>
    <!-- 물결 -->
    <path d="M 80 720 Q 120 700 160 720 Q 200 740 240 720 Q 280 700 320 720"/>
    <path d="M 480 720 Q 520 700 560 720 Q 600 740 640 720 Q 680 700 720 720"/>
  </g>
</svg>
