<?xml version="1.0" encoding="UTF-8"?>
<svg xmlns="http://www.w3.org/2000/svg" viewBox="0 0 800 800" width="800" height="800">
  <g fill="none" stroke="#000000" stroke-width="10" stroke-linecap="round" stroke-linejoin="round">
    <!-- 머리 -->
    <ellipse cx="650" cy="180" rx="60" ry="40"/>
    <!-- 눈 -->
    <circle cx="670" cy="170" r="6"/>
    <!-- 입 -->
    <path d="M 680 200 Q 700 210 710 200"/>
    <!-- 긴 목 -->
    <path d="M 600 200
             Q 500 220 460 320
             Q 430 400 400 460"/>
    <path d="M 660 220
             Q 580 280 540 360
             Q 510 430 480 470"/>
    <!-- 몸통 -->
    <ellipse cx="320" cy="500" rx="220" ry="120"/>
    <!-- 꼬리 -->
    <path d="M 110 510 Q 60 540 50 600"/>
    <path d="M 130 540 Q 90 580 80 620"/>
    <!-- 앞다리 (오른쪽 앞) -->
    <path d="M 440 590 L 450 700 L 490 700 L 500 590"/>
    <!-- 뒷다리 (왼쪽 뒤) -->
    <path d="M 180 590 L 170 700 L 220 700 L 230 590"/>
    <!-- 앞다리 (가운데) -->
    <path d="M 320 600 L 310 700 L 360 700 L 370 600"/>
  </g>
</svg>
