<?xml version="1.0" encoding="UTF-8"?>
<svg xmlns="http://www.w3.org/2000/svg" viewBox="0 0 800 800" width="800" height="800">
  <g fill="none" stroke="#000000" stroke-width="10" stroke-linecap="round" stroke-linejoin="round">
    <!-- 접시 -->
    <ellipse cx="400" cy="700" rx="320" ry="30"/>
    <path d="M 80 700 L 80 720 Q 80 730 100 730 L 700 730 Q 720 730 720 720 L 720 700"/>
    <!-- 아래 케이크 층 -->
    <path d="M 130 510 L 670 510 L 670 700 L 130 700 Z"/>
    <!-- 아래 층 크림 (물결) -->
    <path d="M 130 510 Q 180 540 230 510 Q 280 540 330 510 Q 380 540 430 510 Q 480 540 530 510 Q 580 540 630 510 Q 660 530 670 510"/>
    <!-- 위 케이크 층 -->
    <path d="M 230 350 L 570 350 L 570 510 L 230 510 Z"/>
    <!-- 위 층 크림 (물결) -->
    <path d="M 230 350 Q 280 380 330 350 Q 380 380 430 350 Q 480 380 530 350 Q 560 370 570 350"/>
    <!-- 가운데 초 -->
    <path d="M 380 240 L 380 350 L 420 350 L 420 240 Z"/>
    <!-- 초 줄 -->
    <path d="M 380 290 L 420 290"/>
    <!-- 불꽃 -->
    <path d="M 400 240 Q 380 220 390 190 Q 400 170 410 190 Q 420 220 400 240 Z"/>
    <!-- 왼쪽 초 (작은) -->
    <path d="M 290 280 L 290 350 L 320 350 L 320 280 Z"/>
    <path d="M 305 280 Q 290 260 298 240 Q 305 225 312 240 Q 320 260 305 280 Z"/>
    <!-- 오른쪽 초 (작은) -->
    <path d="M 480 280 L 480 350 L 510 350 L 510 280 Z"/>
    <path d="M 495 280 Q 480 260 488 240 Q 495 225 502 240 Q 510 260 495 280 Z"/>
  </g>
</svg>
