<?xml version="1.0" encoding="UTF-8"?>
<svg xmlns="http://www.w3.org/2000/svg" viewBox="0 0 800 800" width="800" height="800">
  <g fill="none" stroke="#000000" stroke-width="10" stroke-linecap="round" stroke-linejoin="round">
    <!-- 차체 아래 -->
    <path d="M 100 540
             L 100 470
             Q 100 440 130 430
             L 220 410
             L 280 320
             Q 300 300 340 300
             L 530 300
             Q 570 300 600 330
             L 670 410
             L 730 430
             Q 740 440 740 470
             L 740 540
             Z"/>
    <!-- 앞 유리 -->
    <path d="M 280 410 L 320 330 L 470 330 L 510 410 Z"/>
    <!-- 뒷 유리 -->
    <path d="M 510 410 L 560 330 L 600 330 L 640 410 Z"/>
    <!-- 문 손잡이 -->
    <path d="M 400 470 L 440 470"/>
    <!-- 왼쪽 바퀴 (외곽) -->
    <circle cx="240" cy="560" r="65"/>
    <!-- 왼쪽 바퀴 (내부) -->
    <circle cx="240" cy="560" r="30"/>
    <!-- 오른쪽 바퀴 (외곽) -->
    <circle cx="600" cy="560" r="65"/>
    <!-- 오른쪽 바퀴 (내부) -->
    <circle cx="600" cy="560" r="30"/>
    <!-- 헤드라이트 -->
    <circle cx="715" cy="475" r="10"/>
  </g>
</svg>
