<?xml version="1.0" encoding="UTF-8"?>
<svg xmlns="http://www.w3.org/2000/svg" viewBox="0 0 800 800" width="800" height="800">
  <g fill="none" stroke="#000000" stroke-width="10" stroke-linecap="round" stroke-linejoin="round">
    <!-- 콘 -->
    <path d="M 280 440 L 400 740 L 520 440 Z"/>
    <!-- 콘 격자무늬 (\방향) -->
    <path d="M 320 470 L 410 690"/>
    <path d="M 360 470 L 425 630"/>
    <path d="M 400 470 L 440 570"/>
    <path d="M 440 470 L 455 510"/>
    <!-- 콘 격자무늬 (/방향) -->
    <path d="M 480 470 L 390 690"/>
    <path d="M 440 470 L 375 630"/>
    <path d="M 400 470 L 360 570"/>
    <path d="M 360 470 L 345 510"/>
    <!-- 아이스크림 1번째 (가장 아래) -->
    <ellipse cx="400" cy="430" rx="160" ry="60"/>
    <!-- 아이스크림 2번째 (중간) -->
    <ellipse cx="400" cy="320" rx="130" ry="55"/>
    <!-- 아이스크림 3번째 (위) -->
    <ellipse cx="400" cy="220" rx="100" ry="50"/>
    <!-- 체리 -->
    <circle cx="400" cy="140" r="35"/>
    <!-- 체리 줄기 -->
    <path d="M 400 105 Q 410 80 430 70"/>
    <!-- 잎 -->
    <path d="M 430 70 Q 460 60 470 80 Q 450 95 430 80 Z"/>
  </g>
</svg>
