<?xml version="1.0" encoding="UTF-8"?>
<svg xmlns="http://www.w3.org/2000/svg" viewBox="0 0 800 800" width="800" height="800">
  <g fill="none" stroke="#000000" stroke-width="10" stroke-linecap="round" stroke-linejoin="round">
    <!-- 몸통 -->
    <path d="M 240 470
             Q 220 380 280 330
             Q 360 280 460 290
             Q 540 300 580 360
             Q 600 420 580 470
             Q 580 540 520 560
             L 520 620
             Q 520 660 480 660
             Q 460 660 460 620
             L 460 580
             L 380 580
             L 380 620
             Q 380 660 340 660
             Q 320 660 320 620
             L 320 560
             Q 260 540 240 470 Z"/>
    <!-- 머리 (앞쪽) -->
    <path d="M 580 360
             Q 660 350 720 380
             Q 760 410 740 450
             Q 720 470 700 470
             L 600 470
             Q 580 470 580 450 Z"/>
    <!-- 입(이빨) -->
    <path d="M 700 450 L 690 470 L 680 450 L 670 470 L 660 450 L 650 470 L 640 450 L 630 470 L 620 450"/>
    <!-- 눈 -->
    <circle cx="660" cy="395" r="10"/>
    <!-- 콧구멍 -->
    <circle cx="730" cy="410" r="5"/>
    <!-- 작은 앞다리 -->
    <path d="M 460 430 Q 490 460 480 490 Q 470 510 450 500"/>
    <!-- 꼬리 -->
    <path d="M 240 470
             Q 180 470 130 510
             Q 90 540 70 590"/>
    <path d="M 240 500
             Q 200 540 180 580"/>
  </g>
</svg>
