<?xml version="1.0" encoding="UTF-8"?>
<svg xmlns="http://www.w3.org/2000/svg" viewBox="0 0 800 800" width="800" height="800">
  <g fill="none" stroke="#000000" stroke-width="10" stroke-linecap="round" stroke-linejoin="round">
    <!-- 몸통 -->
    <ellipse cx="350" cy="480" rx="240" ry="120"/>
    <!-- 머리 -->
    <path d="M 540 410
             Q 580 380 660 380
             Q 720 390 730 440
             Q 730 490 700 510
             L 600 530
             Q 560 530 540 500 Z"/>
    <!-- 프릴(목 방패) -->
    <path d="M 540 410
             Q 480 360 470 290
             Q 480 240 540 250"/>
    <path d="M 540 530
             Q 490 560 480 600
             Q 500 620 540 600"/>
    <!-- 콧등 뿔 (작은 뿔) -->
    <path d="M 690 420 L 700 380 L 710 420"/>
    <!-- 머리 위 큰 뿔 (왼쪽) -->
    <path d="M 600 380 L 580 290 L 620 380"/>
    <!-- 머리 위 큰 뿔 (오른쪽) -->
    <path d="M 670 380 L 700 290 L 720 370"/>
    <!-- 눈 -->
    <circle cx="660" cy="450" r="8"/>
    <!-- 입 -->
    <path d="M 700 480 Q 720 490 720 500"/>
    <!-- 꼬리 -->
    <path d="M 110 490 Q 60 510 40 560"/>
    <!-- 앞다리 -->
    <path d="M 440 580 L 450 670 L 500 670 L 510 590"/>
    <!-- 뒷다리 -->
    <path d="M 200 580 L 190 670 L 240 670 L 250 590"/>
  </g>
</svg>
